<svg width="32" height="32" viewBox="0 0 32 32" fill="none" xmlns="http://www.w3.org/2000/svg">
<path d="M32 25.3333C32 26.0707 31.4027 26.6667 30.6667 26.6667H26.6667V30.6667C26.6667 31.404 26.0693 32 25.3333 32C24.5973 32 24 31.404 24 30.6667V26.6667H20C19.264 26.6667 18.6667 26.0707 18.6667 25.3333C18.6667 24.596 19.264 24 20 24H24V20C24 19.2627 24.5973 18.6667 25.3333 18.6667C26.0693 18.6667 26.6667 19.2627 26.6667 20V24H30.6667C31.4027 24 32 24.596 32 25.3333ZM21.3333 9.33333C22.068 9.33333 22.6667 8.736 22.6667 8C22.6667 7.264 22.068 6.66667 21.3333 6.66667C20.5987 6.66667 20 7.264 20 8C20 8.736 20.5987 9.33333 21.3333 9.33333ZM6.41067 12.2013L0 18.612V6.66667C0 2.99067 2.99067 0 6.66667 0H22.6667C26.3427 0 29.3333 2.99067 29.3333 6.66667V16H25.3333C23.22 16 21.4867 17.6467 21.344 19.724L13.8213 12.2013C11.7773 10.1573 8.45333 10.1573 6.41067 12.2013ZM17.3333 8C17.3333 10.2053 19.128 12 21.3333 12C23.5387 12 25.3333 10.2053 25.3333 8C25.3333 5.79467 23.5387 4 21.3333 4C19.128 4 17.3333 5.79467 17.3333 8ZM16 25.3333C16 23.3827 17.4027 21.7547 19.2533 21.404L11.936 14.0867C10.9333 13.0853 9.30133 13.084 8.296 14.0867L0 22.3827V22.6667C0 26.3427 2.99067 29.3333 6.66667 29.3333H16V25.3333Z" fill="#247D7B"/>
</svg>
