<svg width="17" height="17" viewBox="0 0 17 17" fill="none" xmlns="http://www.w3.org/2000/svg">
<path d="M15.1463 12.7199C15.1463 12.9599 15.093 13.2066 14.9797 13.4466C14.8663 13.6866 14.7197 13.9133 14.5263 14.1266C14.1997 14.4866 13.8397 14.7466 13.433 14.9133C13.033 15.0799 12.5997 15.1666 12.133 15.1666C11.453 15.1666 10.7263 15.0066 9.95967 14.6799C9.19301 14.3533 8.42634 13.9133 7.66634 13.3599C6.89967 12.7999 6.17301 12.1799 5.47967 11.4933C4.79301 10.7999 4.17301 10.0733 3.61967 9.31325C3.07301 8.55325 2.63301 7.79325 2.31301 7.03992C1.99301 6.27992 1.83301 5.55325 1.83301 4.85992C1.83301 4.40659 1.91301 3.97325 2.07301 3.57325C2.23301 3.16659 2.48634 2.79325 2.83967 2.45992C3.26634 2.03992 3.73301 1.83325 4.22634 1.83325C4.41301 1.83325 4.59967 1.87325 4.76634 1.95325C4.93967 2.03325 5.09301 2.15325 5.21301 2.32659L6.75967 4.50659C6.87967 4.67325 6.96634 4.82659 7.02634 4.97325C7.08634 5.11325 7.11967 5.25325 7.11967 5.37992C7.11967 5.53992 7.07301 5.69992 6.97967 5.85325C6.89301 6.00659 6.76634 6.16659 6.60634 6.32659L6.09967 6.85325C6.02634 6.92659 5.99301 7.01325 5.99301 7.11992C5.99301 7.17325 5.99967 7.21992 6.01301 7.27325C6.03301 7.32659 6.05301 7.36659 6.06634 7.40659C6.18634 7.62659 6.39301 7.91325 6.68634 8.25992C6.98634 8.60659 7.30634 8.95992 7.65301 9.31325C8.01301 9.66659 8.35967 9.99325 8.71301 10.2933C9.05967 10.5866 9.34634 10.7866 9.57301 10.9066C9.60634 10.9199 9.64634 10.9399 9.69301 10.9599C9.74634 10.9799 9.79967 10.9866 9.85967 10.9866C9.97301 10.9866 10.0597 10.9466 10.133 10.8733L10.6397 10.3733C10.8063 10.2066 10.9663 10.0799 11.1197 9.99992C11.273 9.90659 11.4263 9.85992 11.593 9.85992C11.7197 9.85992 11.853 9.88659 11.9997 9.94659C12.1463 10.0066 12.2997 10.0933 12.4663 10.2066L14.673 11.7733C14.8463 11.8933 14.9663 12.0333 15.0397 12.1999C15.1063 12.3666 15.1463 12.5333 15.1463 12.7199Z" stroke="#FAFAFA" stroke-width="1.5" stroke-miterlimit="10"/>
<path d="M12.8333 6.49984C12.8333 6.09984 12.52 5.4865 12.0533 4.9865C11.6267 4.5265 11.06 4.1665 10.5 4.1665" stroke="#FAFAFA" stroke-width="1.5" stroke-linecap="round" stroke-linejoin="round"/>
<path d="M15.1667 6.49992C15.1667 3.91992 13.08 1.83325 10.5 1.83325" stroke="#FAFAFA" stroke-width="1.5" stroke-linecap="round" stroke-linejoin="round"/>
</svg>
