<svg width="32" height="32" viewBox="0 0 32 32" fill="none" xmlns="http://www.w3.org/2000/svg">
<g clip-path="url(#clip0_1437_4273)">
<path d="M23.6281 4L21.7441 1.55733C21.3688 1.07441 20.8885 0.683222 20.3396 0.413405C19.7908 0.143589 19.1877 0.00221739 18.5761 0L13.4241 0C12.8125 0.00221739 12.2094 0.143589 11.6605 0.413405C11.1116 0.683222 10.6314 1.07441 10.2561 1.55733L8.37207 4H23.6281Z" fill="#247D7B"/>
<path d="M16.0003 24.0002C18.9458 24.0002 21.3337 21.6123 21.3337 18.6668C21.3337 15.7213 18.9458 13.3335 16.0003 13.3335C13.0548 13.3335 10.667 15.7213 10.667 18.6668C10.667 21.6123 13.0548 24.0002 16.0003 24.0002Z" fill="#247D7B"/>
<path d="M25.3333 6.6665H6.66667C4.89921 6.66862 3.20474 7.37168 1.95496 8.62146C0.705176 9.87125 0.00211714 11.5657 0 13.3332L0 25.3332C0.00211714 27.1006 0.705176 28.7951 1.95496 30.0449C3.20474 31.2947 4.89921 31.9977 6.66667 31.9998H25.3333C27.1008 31.9977 28.7953 31.2947 30.045 30.0449C31.2948 28.7951 31.9979 27.1006 32 25.3332V13.3332C31.9979 11.5657 31.2948 9.87125 30.045 8.62146C28.7953 7.37168 27.1008 6.66862 25.3333 6.6665ZM16 26.6665C14.4177 26.6665 12.871 26.1973 11.5554 25.3183C10.2398 24.4392 9.21447 23.1898 8.60896 21.728C8.00346 20.2662 7.84504 18.6576 8.15372 17.1058C8.4624 15.5539 9.22433 14.1285 10.3431 13.0097C11.462 11.8908 12.8874 11.1289 14.4393 10.8202C15.9911 10.5115 17.5997 10.67 19.0615 11.2755C20.5233 11.881 21.7727 12.9063 22.6518 14.2219C23.5308 15.5375 24 17.0843 24 18.6665C23.9979 20.7876 23.1543 22.8212 21.6545 24.321C20.1547 25.8209 18.1211 26.6644 16 26.6665Z" fill="#247D7B"/>
</g>
<defs>
<clipPath id="clip0_1437_4273">
<rect width="32" height="32" fill="white"/>
</clipPath>
</defs>
</svg>
